#!OML:ASF E:\Style4\Style4.ASF
:FULLY-SPECIFIED
:DEGREES
1714
root -1.22823 18.1178 -0.563282 8.71627 -3.38872 -7.23401
lowerback 6.68999 2.70002 -12.384
upperback -2.294 2.05453 -6.42047
thorax -6.45763 1.34211 -0.154552
lowerneck 2.3768 -2.43078 -7.07027
upperneck 1.99521 -3.4876 7.54073
head 0.500394 -1.78905 3.70851
rclavicle -1.66979e-014 -3.18055e-015
rhumerus -81.1739 47.0871 -123.271
rradius 76.1466
rwrist 0.912001
rhand -4.45626 29.249
rfingers 7.12502
rthumb 21.3158 0.401297
lclavicle -1.66979e-014 -3.18055e-015
lhumerus -17.3768 30.7933 13.6773
lradius 93.0811
lwrist -10.5747
lhand -9.71948 36.2308
lfingers 7.12502
lthumb 16.2538 65.5695
rfemur -4.30406 6.24555 29.973
rtibia 3.56274
rfoot -6.42911 -10.5293
rtoes -10.6251
lfemur -13.9159 -3.44217 -6.18749
ltibia 25.0733
lfoot -19.2126 14.365
ltoes -19.8093
1715
root -1.24433 18.1097 -0.572591 8.82434 -3.31987 -7.58221
lowerback 6.73509 2.72475 -12.4451
upperback -2.23913 2.07237 -6.53736
thorax -6.42492 1.34718 -0.24834
lowerneck 2.32073 -2.45185 -7.084
upperneck 2.06354 -3.51574 7.53205
head 0.534709 -1.80223 3.7067
rclavicle -1.90833e-014 -3.81667e-014
rhumerus -80.9862 47.0157 -123.309
rradius 76.0153
rwrist 0.934575
rhand -4.44482 29.2146
rfingers 7.12502
rthumb 21.3268 0.368107
lclavicle -1.90833e-014 -3.81667e-014
lhumerus -17.3989 30.9054 13.8664
lradius 93.0088
lwrist -10.5477
lhand -9.5556 36.0354
lfingers 7.12502
lthumb 16.4116 65.3611
rfemur -4.51485 6.25631 30.387
rtibia 3.7197
rfoot -6.55903 -10.5477
rtoes -9.48828
lfemur -14.3298 -3.21435 -5.71356
ltibia 25.5575
lfoot -19.2578 14.2047
ltoes -20.3578
1716
root -1.25827 18.1035 -0.578408 8.85128 -3.24767 -7.79494
lowerback 6.80986 2.74752 -12.6435
upperback -2.16001 2.07132 -6.66706
thorax -6.38762 1.34682 -0.280163
lowerneck 2.49121 -2.47924 -7.07479
upperneck 1.85683 -3.55239 7.47252
head 0.439532 -1.82367 3.68789
rclavicle 1.66979e-014 2.54444e-014
rhumerus -80.8844 46.9423 -123.36
rradius 75.9689
rwrist 1.0566
rhand -4.513 29.2152
rfingers 7.12502
rthumb 21.2613 0.361342
lclavicle 1.66979e-014 2.54444e-014
lhumerus -17.5157 30.9368 14.0169
lradius 92.9563
lwrist -10.2308
lhand -9.72556 36.0481
lfingers 7.12502
lthumb 16.2479 65.3873
rfemur -4.53485 6.22803 30.6637
rtibia 3.77481
rfoot -6.68135 -10.5702
rtoes -7.85433
lfemur -14.6413 -3.0879 -5.40892
ltibia 26.0338
lfoot -19.3787 14.048
ltoes -20.5213
1717
root -1.27251 18.0981 -0.586578 8.87027 -3.17967 -8.00933
lowerback 6.93947 2.78693 -12.8361
upperback -2.08703 2.08139 -6.79834
thorax -6.38932 1.35309 -0.32188
lowerneck 2.81706 -2.55753 -6.95812
upperneck 1.43904 -3.65367 7.299
head 0.249802 -1.87922 3.61292
rclavicle 6.36111e-015 4.45278e-014
rhumerus -80.7739 46.8454 -123.408
rradius 75.9202
rwrist 1.20334
rhand -4.55885 29.2705
rfingers 7.12502
rthumb 21.2172 0.411671
lclavicle 6.36111e-015 4.45278e-014
lhumerus -17.5765 30.7708 14.2381
lradius 92.8569
lwrist -10.1626
lhand -10.4385 36.1028
lfingers 7.12502
lthumb 15.5613 65.4967
rfemur -4.62346 6.2041 30.9418
rtibia 3.91815
rfoot -6.71297 -10.5779
rtoes -7.40974
lfemur -14.9414 -2.94521 -5.09407
ltibia 26.4838
lfoot -19.4705 13.8715
ltoes -20.6939
1718
root -1.28416 18.0898 -0.598874 8.89729 -3.06045 -8.29549
lowerback 7.12925 2.81072 -12.9025
upperback -2.03556 2.06995 -6.90778
thorax -6.44151 1.34743 -0.409306
lowerneck 3.03273 -2.58309 -6.86124
upperneck 1.21415 -3.68686 7.13953
head 0.136989 -1.89851 3.54449
rclavicle 6.12257e-014 -4.13472e-014
rhumerus -80.6892 46.7572 -123.479
rradius 75.8404
rwrist 1.25199
rhand -4.46791 29.223
rfingers 7.12502
rthumb 21.3046 0.374001
lclavicle 6.12257e-014 -4.13472e-014
lhumerus -17.7246 30.6935 14.4074
lradius 92.8533
lwrist -10.3852
lhand -10.5208 35.8918
lfingers 7.12502
lthumb 15.4821 65.2919
rfemur -4.7986 6.14274 31.2871
rtibia 4.1191
rfoot -6.76203 -10.5789
rtoes -7.59414
lfemur -15.2785 -2.81107 -4.70278
ltibia 26.9208
lfoot -19.4682 13.7614
ltoes -21.0959
1719
root -1.2948 18.0805 -0.611932 8.9605 -2.90884 -8.55849
lowerback 7.27955 2.82024 -12.9902
upperback -1.97349 2.04736 -6.99963
thorax -6.45987 1.33607 -0.462327
lowerneck 3.01924 -2.59724 -6.8761
upperneck 1.24174 -3.70587 7.0504
head 0.148144 -1.90747 3.51578
rclavicle 1.74931e-014 -9.54166e-015
rhumerus -80.5668 46.7152 -123.493
rradius 75.7871
rwrist 1.17616
rhand -4.41742 29.1304
rfingers 7.12502
rthumb 21.3531 0.286952
lclavicle 1.74931e-014 -9.54166e-015
lhumerus -17.8366 30.9051 14.5188
lradius 92.8412
lwrist -10.8768
lhand -9.5784 35.5894
lfingers 7.12502
lthumb 16.3896 64.9169
rfemur -4.95946 6.05374 31.6116
rtibia 4.20241
rfoot -6.79402 -10.5786
rtoes -7.37641
lfemur -15.6788 -2.72664 -4.33105
ltibia 27.3779
lfoot -19.4935 13.6476
ltoes -21.497
1720
root -1.30428 18.0706 -0.622166 9.06873 -2.82572 -8.81193
lowerback 7.32912 2.81657 -13.1231
upperback -1.92136 2.02147 -7.0756
thorax -6.43329 1.32371 -0.468861
lowerneck 2.99398 -2.61264 -6.94588
upperneck 1.27416 -3.72794 6.99836
head 0.165018 -1.91816 3.51036
rclavicle -7.95139e-015 -3.18055e-015
rhumerus -80.516 46.7813 -123.6
rradius 75.7084
rwrist 1.10709
rhand -4.47459 29.1297
rfingers 7.12502
rthumb 21.2982 0.280003
lclavicle -7.95139e-015 -3.18055e-015
lhumerus -18.0266 31.0341 14.4897
lradius 92.7979
lwrist -11.1651
lhand -8.94202 35.4374
lfingers 7.12502
lthumb 17.0022 64.7133
rfemur -5.06035 6.03836 31.915
rtibia 4.10859
rfoot -6.72769 -10.5946
rtoes -7.1104
lfemur -16.0965 -2.61315 -3.98788
ltibia 27.8672
lfoot -19.5563 13.517
ltoes -21.647
1721
root -1.31435 18.0622 -0.630293 9.15309 -2.7621 -9.10467
lowerback 7.35852 2.83559 -13.1861
upperback -1.8381 2.03995 -7.16149
thorax -6.36143 1.32741 -0.526756
lowerneck 2.86983 -2.65987 -7.04345
upperneck 1.35389 -3.79007 7.02341
head 0.219836 -1.94781 3.53476
rclavicle 3.97569e-015 1.27222e-014
rhumerus -80.3057 46.805 -123.601
rradius 75.5251
rwrist 1.14305
rhand -4.7613 29.2133
rfingers 7.12502
rthumb 21.0227 0.332777
lclavicle 3.97569e-015 1.27222e-014
lhumerus -18.1312 30.9206 14.5375
lradius 92.8127
lwrist -10.8314
lhand -9.40443 35.7714
lfingers 7.12502
lthumb 16.5571 65.0851
rfemur -5.13235 6.04377 32.2582
rtibia 4.05696
rfoot -6.67163 -10.6
rtoes -7.01843
lfemur -16.4649 -2.44942 -3.60629
ltibia 28.346
lfoot -19.6296 13.3074
ltoes -21.596
1722
root -1.32627 18.0521 -0.639941 9.2116 -2.66586 -9.45646
lowerback 7.46626 2.86806 -13.1772
upperback -1.78044 2.06448 -7.25152
thorax -6.35961 1.33485 -0.634199
lowerneck 2.75845 -2.73421 -7.05065
upperneck 1.47556 -3.88784 7.00749
head 0.285897 -1.99508 3.52709
rclavicle 6.36111e-015 -9.85972e-014
rhumerus -80.1095 46.7002 -123.606
rradius 75.3951
rwrist 1.19273
rhand -4.95826 29.1736
rfingers 7.12502
rthumb 20.8335 0.272188
lclavicle 6.36111e-015 -9.85972e-014
lhumerus -18.1048 30.8599 14.7321
lradius 92.82
lwrist -10.7322
lhand -9.63125 36.0235
lfingers 7.12502
lthumb 16.3387 65.3552
rfemur -5.2311 6.02434 32.6825
rtibia 4.07907
rfoot -6.64517 -10.5993
rtoes -6.69237
lfemur -16.8167 -2.29415 -3.13354
ltibia 28.796
lfoot -19.7798 13.1258
ltoes -21.5734
1723
root -1.33572 18.0428 -0.648276 9.2607 -2.59361 -9.70515
lowerback 7.5608 2.8721 -13.2879
upperback -1.72401 2.04133 -7.34705
thorax -6.35277 1.32305 -0.676411
lowerneck 2.79307 -2.72752 -7.0445
upperneck 1.43086 -3.87879 6.98036
head 0.264024 -1.99097 3.51756
rclavicle -1.98785e-014 7.31528e-014
rhumerus -80.0552 46.7153 -123.741
rradius 75.313
rwrist 1.15748
rhand -4.83947 29.1976
rfingers 7.12502
rthumb 20.9476 0.308689
lclavicle -1.98785e-014 7.31528e-014
lhumerus -18.2244 30.952 14.8432
lradius 92.7406
lwrist -10.8653
lhand -9.57016 35.788
lfingers 7.12502
lthumb 16.3975 65.1149
rfemur -5.36586 6.01008 32.9795
rtibia 4.17344
rfoot -6.67955 -10.589
rtoes -6.46972
lfemur -17.1396 -2.15754 -2.79433
ltibia 29.2126
lfoot -19.881 13.033
ltoes -21.8956
1724
root -1.34375 18.0364 -0.654903 9.32406 -2.54147 -9.87304
lowerback 7.61402 2.88344 -13.4583
upperback -1.6709 2.02847 -7.4558
thorax -6.32907 1.31744 -0.700633
lowerneck 2.89464 -2.71733 -7.10887
upperneck 1.31457 -3.86878 7.0057
head 0.210014 -1.98787 3.54195
rclavicle -1.82882e-014 6.99722e-014
rhumerus -79.9541 46.7007 -123.796
rradius 75.2228
rwrist 1.12785
rhand -4.60022 29.2382
rfingers 7.12502
rthumb 21.1775 0.374959
lclavicle -1.82882e-014 6.99722e-014
lhumerus -18.4265 30.97 14.9202
lradius 92.7603
lwrist -10.8674
lhand -9.61757 35.6492
lfingers 7.12502
lthumb 16.3519 64.9799
rfemur -5.48183 6.00482 33.1777
rtibia 4.21842
rfoot -6.71247 -10.5817
rtoes -6.2371
lfemur -17.4456 -2.10988 -2.55618
ltibia 29.6055
lfoot -20.0501 12.9167
ltoes -21.6849
1725
root -1.35355 18.0295 -0.66299 9.35965 -2.47872 -10.0601
lowerback 7.70792 2.90804 -13.6215
upperback -1.60204 2.02769 -7.56442
thorax -6.31228 1.31709 -0.73191
lowerneck 2.87869 -2.76401 -7.05586
upperneck 1.27249 -3.92667 6.93123
head 0.201074 -2.01604 3.50572
rclavicle 2.06736e-014 -6.04305e-014
rhumerus -79.7257 46.6575 -123.78
rradius 75.1051
rwrist 1.11099
rhand -4.51788 29.2239
rfingers 7.12502
rthumb 21.2566 0.369456
lclavicle 2.06736e-014 -6.04305e-014
lhumerus -18.5528 30.9189 15.005
lradius 92.8241
lwrist -10.853
lhand -9.72328 35.8529
lfingers 7.12502
lthumb 16.2501 65.1919
rfemur -5.5923 5.98716 33.4031
rtibia 4.31961
rfoot -6.76238 -10.6058
rtoes -5.98267
lfemur -17.715 -2.05972 -2.2917
ltibia 29.9876
lfoot -20.2115 12.7639
ltoes -21.4332
